<svg xmlns="http://www.w3.org/2000/svg" viewBox="0 0 940 480" font-family="ui-sans-serif, system-ui, Segoe UI, Roboto, Helvetica, Arial, sans-serif">
  <defs>
    <marker id="arrow" markerWidth="9" markerHeight="9" refX="7" refY="3" orient="auto" markerUnits="strokeWidth">
      <path d="M0,0 L8,3 L0,6 Z" fill="#475569"/>
    </marker>
    <marker id="arrow-start" markerWidth="9" markerHeight="9" refX="1" refY="3" orient="auto" markerUnits="strokeWidth">
      <path d="M8,0 L0,3 L8,6 Z" fill="#475569"/>
    </marker>
  </defs>

  <rect width="940" height="480" fill="#f8fafc"/>

  <!-- Edges -->
  <!-- Browser <-> Backend : HTTPS REST -->
  <line x1="278" y1="230" x2="347" y2="230" stroke="#94a3b8" stroke-width="1.8" marker-start="url(#arrow-start)" marker-end="url(#arrow)"/>
  <rect x="283" y="206" width="58" height="18" fill="#f8fafc"/>
  <text x="312" y="219" text-anchor="middle" fill="#475569" font-size="12" font-weight="600">HTTPS</text>

  <!-- Backend -> Video AI : REST (create session) -->
  <line x1="593" y1="205" x2="676" y2="128" stroke="#94a3b8" stroke-width="1.8" marker-end="url(#arrow)"/>
  <rect x="612" y="150" width="44" height="18" fill="#f8fafc"/>
  <text x="634" y="163" text-anchor="middle" fill="#475569" font-size="12" font-weight="600">REST</text>

  <!-- Browser <-> Video AI : WebRTC media (top arc) -->
  <path d="M 150,166 C 150,34 790,34 790,56" fill="none" stroke="#2563eb" stroke-width="2" stroke-dasharray="6 5" marker-start="url(#arrow-start)" marker-end="url(#arrow)"/>
  <rect x="392" y="22" width="190" height="20" fill="#f8fafc"/>
  <text x="487" y="37" text-anchor="middle" fill="#2563eb" font-size="12.5" font-weight="700">WebRTC media (audio / video)</text>

  <!-- Backend -> DB : store signups -->
  <line x1="593" y1="255" x2="676" y2="338" stroke="#94a3b8" stroke-width="1.8" marker-end="url(#arrow)"/>
  <rect x="600" y="300" width="68" height="18" fill="#f8fafc"/>
  <text x="634" y="313" text-anchor="middle" fill="#475569" font-size="12" font-weight="600">waitlist</text>

  <!-- Browser -->
  <rect x="48" y="170" width="230" height="120" rx="14" fill="#ffffff" stroke="#cbd5e1" stroke-width="1.5"/>
  <text x="163" y="212" text-anchor="middle" fill="#0d1117" font-size="17" font-weight="700">Browser</text>
  <text x="163" y="237" text-anchor="middle" fill="#475569" font-size="13">Single-page app (React)</text>
  <text x="163" y="259" text-anchor="middle" fill="#94a3b8" font-size="12">landing · interview · debrief</text>

  <!-- Backend -->
  <rect x="347" y="170" width="246" height="120" rx="14" fill="#eff6ff" stroke="#bfdbfe" stroke-width="1.5"/>
  <text x="470" y="212" text-anchor="middle" fill="#0d1117" font-size="17" font-weight="700">Edge Functions</text>
  <text x="470" y="237" text-anchor="middle" fill="#475569" font-size="13">Supabase · Deno</text>
  <text x="470" y="259" text-anchor="middle" fill="#94a3b8" font-size="12">start-session · report · waitlist</text>

  <!-- Video AI -->
  <rect x="676" y="56" width="216" height="116" rx="14" fill="#ffffff" stroke="#cbd5e1" stroke-width="1.5"/>
  <text x="784" y="100" text-anchor="middle" fill="#0d1117" font-size="16" font-weight="700">Conversational</text>
  <text x="784" y="122" text-anchor="middle" fill="#0d1117" font-size="16" font-weight="700">video AI</text>
  <text x="784" y="146" text-anchor="middle" fill="#94a3b8" font-size="12">real-time talking avatar</text>

  <!-- Database -->
  <rect x="676" y="304" width="216" height="116" rx="14" fill="#ffffff" stroke="#cbd5e1" stroke-width="1.5"/>
  <text x="784" y="356" text-anchor="middle" fill="#0d1117" font-size="16" font-weight="700">Database</text>
  <text x="784" y="380" text-anchor="middle" fill="#94a3b8" font-size="12">waitlist signups (optional)</text>
</svg>
