<svg xmlns="http://www.w3.org/2000/svg" viewBox="0 0 64 64" role="img" aria-label="VisaDrill logo">
  <defs>
    <linearGradient id="visaDrillLogoGradient" x1="8" y1="8" x2="56" y2="56" gradientUnits="userSpaceOnUse">
      <stop stop-color="#60A5FA" />
      <stop offset="1" stop-color="#2563EB" />
    </linearGradient>
  </defs>
  <rect width="64" height="64" rx="16" fill="url(#visaDrillLogoGradient)" />
  <path
    d="M3.85 8.62a4 4 0 0 1 4.78-4.77 4 4 0 0 1 6.74 0 4 4 0 0 1 4.78 4.78 4 4 0 0 1 0 6.74 4 4 0 0 1-4.77 4.78 4 4 0 0 1-6.75 0 4 4 0 0 1-4.78-4.77 4 4 0 0 1 0-6.76Z"
    fill="none"
    stroke="#fff"
    stroke-width="2.6"
    stroke-linecap="round"
    stroke-linejoin="round"
    transform="translate(14 14) scale(1.5)"
  />
</svg>
